name C:/MyDriveSym/Projects/mobilecap/Data\Session20210910_0002\mocap\ForceDataProcessed\walking2_forces.mot
datacolumns 19
datarows 29
range 0.67950000 0.69350000
endheader 
time	R_ground_force_vx	R_ground_force_vy	R_ground_force_vz	R_ground_force_px	R_ground_force_py	R_ground_force_pz	R_ground_torque_x	R_ground_torque_y	R_ground_torque_z	L_ground_force_vx	L_ground_force_vy	L_ground_force_vz	L_ground_force_px	L_ground_force_py	L_ground_force_pz	L_ground_torque_x	L_ground_torque_y	L_ground_torque_z	
          0.67950000	         75.42129400	        222.44941700	         -4.93981400	          0.30956400	          0.00600000	         -0.20058200	          0.00000000	         -1.01347200	          0.00000000	       -147.16372100	        838.47201800	         52.00512800	          0.87539800	          0.00600000	         -0.38559200	          0.00000000	          1.37507000	          0.00000000	
          0.68000000	         74.59712300	        219.35797100	         -4.79618900	          0.30979700	          0.00600000	         -0.20060400	          0.00000000	         -1.00330000	          0.00000000	       -147.42393100	        840.51585600	         52.21340400	          0.87560700	          0.00600000	         -0.38559700	          0.00000000	          1.36952200	          0.00000000	
          0.68050000	         73.77596400	        216.28686000	         -4.65430300	          0.31003200	          0.00600000	         -0.20062700	          0.00000000	         -0.99318000	          0.00000000	       -147.67888500	        842.54463300	         52.42032700	          0.87581500	          0.00600000	         -0.38560100	          0.00000000	          1.36391200	          0.00000000	
          0.68100000	         72.95788100	        213.23617500	         -4.51414600	          0.31027000	          0.00600000	         -0.20065000	          0.00000000	         -0.98311300	          0.00000000	       -147.92858900	        844.55830600	         52.62588500	          0.87602400	          0.00600000	         -0.38560500	          0.00000000	          1.35824100	          0.00000000	
          0.68150000	         72.14293600	        210.20600500	         -4.37570900	          0.31051200	          0.00600000	         -0.20067400	          0.00000000	         -0.97310000	          0.00000000	       -148.17304900	        846.55683500	         52.83006400	          0.87623200	          0.00600000	         -0.38561000	          0.00000000	          1.35251100	          0.00000000	
          0.68200000	         71.33119100	        207.19643600	         -4.23898100	          0.31075500	          0.00600000	         -0.20069700	          0.00000000	         -0.96314200	          0.00000000	       -148.41227200	        848.54018100	         53.03284900	          0.87644100	          0.00600000	         -0.38561400	          0.00000000	          1.34672300	          0.00000000	
          0.68250000	         70.52270500	        204.20754800	         -4.10395400	          0.31100300	          0.00600000	         -0.20072000	          0.00000000	         -0.95323900	          0.00000000	       -148.64626400	        850.50830300	         53.23422800	          0.87664900	          0.00600000	         -0.38561900	          0.00000000	          1.34087800	          0.00000000	
          0.68300000	         69.71753800	        201.23942000	         -3.97061700	          0.31125300	          0.00600000	         -0.20074400	          0.00000000	         -0.94339300	          0.00000000	       -148.87503400	        852.46116400	         53.43418800	          0.87685700	          0.00600000	         -0.38562300	          0.00000000	          1.33497800	          0.00000000	
          0.68350000	         68.91574700	        198.29212600	         -3.83896000	          0.31150600	          0.00600000	         -0.20076700	          0.00000000	         -0.93360400	          0.00000000	       -149.09858800	        854.39872500	         53.63271500	          0.87706500	          0.00600000	         -0.38562800	          0.00000000	          1.32902300	          0.00000000	
          0.68400000	         68.11738800	        195.36573700	         -3.70897500	          0.31176300	          0.00600000	         -0.20079100	          0.00000000	         -0.92387300	          0.00000000	       -149.31693600	        856.32094900	         53.82979600	          0.87727400	          0.00600000	         -0.38563200	          0.00000000	          1.32301500	          0.00000000	
          0.68450000	         67.32251700	        192.46032200	         -3.58065000	          0.31202300	          0.00600000	         -0.20081500	          0.00000000	         -0.91420100	          0.00000000	       -149.53008500	        858.22780000	         54.02541800	          0.87748100	          0.00600000	         -0.38563700	          0.00000000	          1.31695500	          0.00000000	
          0.68500000	         66.53118700	        189.57594400	         -3.45397600	          0.31228700	          0.00600000	         -0.20083900	          0.00000000	         -0.90459000	          0.00000000	       -149.73804400	        860.11924100	         54.21956800	          0.87768900	          0.00600000	         -0.38564200	          0.00000000	          1.31084600	          0.00000000	
          0.68550000	         65.74345200	        186.71266400	         -3.32894200	          0.31255400	          0.00600000	         -0.20086400	          0.00000000	         -0.89503900	          0.00000000	       -149.94082200	        861.99523800	         54.41223300	          0.87789700	          0.00600000	         -0.38564600	          0.00000000	          1.30468700	          0.00000000	
          0.68600000	         64.95936300	        183.87054000	         -3.20553900	          0.31282500	          0.00600000	         -0.20088800	          0.00000000	         -0.88555000	          0.00000000	       -150.13842900	        863.85575600	         54.60340100	          0.87810500	          0.00600000	         -0.38565100	          0.00000000	          1.29848000	          0.00000000	
          0.68650000	         64.17897100	        181.04962600	         -3.08375700	          0.31310100	          0.00600000	         -0.20091300	          0.00000000	         -0.87612300	          0.00000000	       -150.33087500	        865.70076100	         54.79305700	          0.87831300	          0.00600000	         -0.38565600	          0.00000000	          1.29222700	          0.00000000	
          0.68700000	         63.40232500	        178.24997200	         -2.96358500	          0.31338000	          0.00600000	         -0.20093700	          0.00000000	         -0.86676000	          0.00000000	       -150.51816900	        867.53022000	         54.98119100	          0.87852000	          0.00600000	         -0.38566100	          0.00000000	          1.28593000	          0.00000000	
          0.68750000	         62.62947200	        175.47162700	         -2.84501300	          0.31366300	          0.00600000	         -0.20096200	          0.00000000	         -0.85746100	          0.00000000	       -150.70032300	        869.34409900	         55.16778800	          0.87872800	          0.00600000	         -0.38566500	          0.00000000	          1.27958800	          0.00000000	
          0.68800000	         61.86046000	        172.71463500	         -2.72803000	          0.31395000	          0.00600000	         -0.20098700	          0.00000000	         -0.84822700	          0.00000000	       -150.87734600	        871.14236700	         55.35283700	          0.87893500	          0.00600000	         -0.38567000	          0.00000000	          1.27320500	          0.00000000	
          0.68850000	         61.09533500	        169.97903500	         -2.61262700	          0.31424200	          0.00600000	         -0.20101300	          0.00000000	         -0.83905900	          0.00000000	       -151.04925100	        872.92499100	         55.53632500	          0.87914300	          0.00600000	         -0.38567500	          0.00000000	          1.26678100	          0.00000000	
          0.68900000	         60.33414100	        167.26486700	         -2.49879300	          0.31453800	          0.00600000	         -0.20103800	          0.00000000	         -0.82995900	          0.00000000	       -151.21604800	        874.69194000	         55.71823900	          0.87935000	          0.00600000	         -0.38568000	          0.00000000	          1.26031700	          0.00000000	
          0.68950000	         59.57692100	        164.57216400	         -2.38651700	          0.31484000	          0.00600000	         -0.20106400	          0.00000000	         -0.82092600	          0.00000000	       -151.37775000	        876.44318400	         55.89856800	          0.87955800	          0.00600000	         -0.38568500	          0.00000000	          1.25381600	          0.00000000	
          0.69000000	         58.82371700	        161.90095600	         -2.27578900	          0.31514500	          0.00600000	         -0.20109000	          0.00000000	         -0.81196200	          0.00000000	       -151.53436900	        878.17869200	         56.07729800	          0.87976500	          0.00600000	         -0.38569000	          0.00000000	          1.24727800	          0.00000000	
          0.69050000	         58.07457100	        159.25127300	         -2.16659900	          0.31545600	          0.00600000	         -0.20111600	          0.00000000	         -0.80306800	          0.00000000	       -151.68591700	        879.89843500	         56.25441800	          0.87997200	          0.00600000	         -0.38569500	          0.00000000	          1.24070500	          0.00000000	
          0.69100000	         57.32952300	        156.62313900	         -2.05893600	          0.31577300	          0.00600000	         -0.20114200	          0.00000000	         -0.79424500	          0.00000000	       -151.83240600	        881.60238300	         56.42991600	          0.88017900	          0.00600000	         -0.38570000	          0.00000000	          1.23409900	          0.00000000	
          0.69150000	         56.58861000	        154.01657400	         -1.95279000	          0.31609400	          0.00600000	         -0.20116900	          0.00000000	         -0.78549300	          0.00000000	       -151.97385100	        883.29050800	         56.60378000	          0.88038700	          0.00600000	         -0.38570500	          0.00000000	          1.22746000	          0.00000000	
          0.69200000	         55.85187200	        151.43159900	         -1.84815000	          0.31642100	          0.00600000	         -0.20119600	          0.00000000	         -0.77681400	          0.00000000	       -152.11026400	        884.96278100	         56.77599800	          0.88059400	          0.00600000	         -0.38571000	          0.00000000	          1.22079100	          0.00000000	
          0.69250000	         55.11934500	        148.86822700	         -1.74500500	          0.31675400	          0.00600000	         -0.20122300	          0.00000000	         -0.76820800	          0.00000000	       -152.24165900	        886.61917400	         56.94655800	          0.88080100	          0.00600000	         -0.38571500	          0.00000000	          1.21409300	          0.00000000	
          0.69300000	         54.39106300	        146.32647200	         -1.64334400	          0.31709200	          0.00600000	         -0.20125000	          0.00000000	         -0.75967700	          0.00000000	       -152.36805100	        888.25965900	         57.11544900	          0.88100800	          0.00600000	         -0.38572000	          0.00000000	          1.20736700	          0.00000000	
          0.69350000	         53.66706200	        143.80634100	         -1.54315800	          0.31743700	          0.00600000	         -0.20127800	          0.00000000	         -0.75122100	          0.00000000	       -152.48945300	        889.88421100	         57.28265900	          0.88121500	          0.00600000	         -0.38572500	          0.00000000	          1.20061500	          0.00000000	
